#N canvas 617 61 679 630 24;
#N canvas 388 55 1091 684 carregaaudio_analise_de_audio 0;
#X obj 67 257 readsf~;
#X msg 150 194 open dub.wav;
#X msg 68 197 start;
#X obj 68 141 t b b;
#X obj 68 108 bng 15 250 50 0 empty empty empty 17 7 0 10 -262144 -1
-1;
#X msg 302 194 stop;
#X obj 69 33 inlet;
#X obj 303 27 inlet;
#X obj 453 63 inlet;
#X obj 66 308 *~;
#X obj 21 540 dac~;
#X obj 453 193 line~;
#X text 463 91 volume 0 -1;
#X obj 156 397 fiddle~ 1024;
#X obj 349 286 env~;
#X floatatom 157 450 5 0 0 0 - - -;
#X floatatom 347 336 5 0 0 0 - - -;
#X obj 345 376 dbtorms;
#X floatatom 345 416 5 0 0 0 - - -;
#X obj 563 244 hip~ 5;
#X obj 486 299 env~;
#X floatatom 484 349 5 0 0 0 - - -;
#X obj 482 389 dbtorms;
#X floatatom 482 429 5 0 0 0 - - -;
#X obj 345 456 vsl 15 60 0 1 0 0 empty empty empty 0 -9 0 10 -262144
-1 -1 0 1;
#X obj 479 460 vsl 15 60 0 0.1 0 0 empty empty empty 0 -9 0 10 -262144
-1 -1 0 1;
#X obj 576 299 env~;
#X floatatom 574 349 5 0 0 0 - - -;
#X obj 572 389 dbtorms;
#X floatatom 572 429 5 0 0 0 - - -;
#X obj 573 466 vsl 15 60 0 1 0 0 empty empty empty 0 -9 0 10 -262144
-1 -1 0 1;
#X obj 468 238 lop~ 10;
#X obj 690 257 bp~;
#X obj 686 309 env~;
#X floatatom 684 359 5 0 0 0 - - -;
#X obj 682 399 dbtorms;
#X floatatom 682 439 5 0 0 0 - - -;
#X obj 683 476 vsl 15 60 0 0.1 0 0 empty empty empty 0 -9 0 10 -262144
-1 -1 0 1;
#X floatatom 693 166 5 0 0 0 - - -;
#X floatatom 720 207 5 0 0 0 - - -;
#X obj 800 257 bp~;
#X obj 796 309 env~;
#X floatatom 794 359 5 0 0 0 - - -;
#X obj 792 399 dbtorms;
#X floatatom 792 439 5 0 0 0 - - -;
#X obj 793 476 vsl 15 60 0 0.1 0 0 empty empty empty 0 -9 0 10 -262144
-1 -1 0 1;
#X floatatom 803 166 5 0 0 0 - - -;
#X floatatom 830 207 5 0 0 0 - - -;
#X obj 109 505 bonk~;
#X obj 758 653 s bonk;
#X obj 662 571 moses 0.01;
#X floatatom 660 616 5 0 0 0 - - -;
#X floatatom 762 618 5 0 0 0 - - -;
#X connect 0 0 9 0;
#X connect 0 0 10 0;
#X connect 0 0 10 1;
#X connect 1 0 0 0;
#X connect 2 0 0 0;
#X connect 3 0 2 0;
#X connect 3 1 1 0;
#X connect 4 0 3 0;
#X connect 5 0 0 0;
#X connect 6 0 4 0;
#X connect 7 0 5 0;
#X connect 8 0 11 0;
#X connect 9 0 13 0;
#X connect 9 0 14 0;
#X connect 9 0 19 0;
#X connect 9 0 31 0;
#X connect 9 0 32 0;
#X connect 9 0 40 0;
#X connect 9 0 48 0;
#X connect 11 0 9 1;
#X connect 13 0 15 0;
#X connect 14 0 16 0;
#X connect 16 0 17 0;
#X connect 17 0 18 0;
#X connect 18 0 24 0;
#X connect 19 0 26 0;
#X connect 20 0 21 0;
#X connect 21 0 22 0;
#X connect 22 0 23 0;
#X connect 23 0 25 0;
#X connect 26 0 27 0;
#X connect 27 0 28 0;
#X connect 28 0 29 0;
#X connect 29 0 30 0;
#X connect 31 0 20 0;
#X connect 32 0 33 0;
#X connect 33 0 34 0;
#X connect 34 0 35 0;
#X connect 35 0 36 0;
#X connect 36 0 37 0;
#X connect 37 0 50 0;
#X connect 38 0 32 1;
#X connect 39 0 32 2;
#X connect 40 0 41 0;
#X connect 41 0 42 0;
#X connect 42 0 43 0;
#X connect 43 0 44 0;
#X connect 44 0 45 0;
#X connect 46 0 40 1;
#X connect 47 0 40 2;
#X connect 50 0 51 0;
#X connect 50 1 52 0;
#X connect 52 0 49 0;
#X restore 212 166 pd carregaaudio_analise_de_audio;
#N canvas 605 54 589 668 mostra_poesia 1;
#X obj 17 39 gemhead;
#X obj 17 267 translateXYZ;
#X obj 19 602 text3d;
#N canvas 779 99 443 602 posicionamento_frase1 0;
#X text 54 13 listas de posicionamento XYZ;
#X obj 83 48 inlet;
#X text 148 45 chega bang;
#X obj 84 92 random 4;
#X obj 83 138 select 0 1 2 3;
#X msg 52 269 0 0 0;
#X msg 142 264 -2 -2 0;
#X msg 223 229 2 2 0;
#X msg 162 195 -2 0 0;
#X obj 77 357 unpack f f f;
#X obj 67 504 outlet;
#X obj 154 505 outlet;
#X obj 243 505 outlet;
#X obj 61 465 line;
#X obj 151 464 line;
#X obj 245 465 line;
#X msg 54 422 \$1 100;
#X msg 149 424 \$1 100;
#X msg 243 424 \$1 100;
#X connect 1 0 3 0;
#X connect 3 0 4 0;
#X connect 4 0 5 0;
#X connect 4 1 6 0;
#X connect 4 2 7 0;
#X connect 4 3 8 0;
#X connect 5 0 9 0;
#X connect 6 0 9 0;
#X connect 7 0 9 0;
#X connect 8 0 9 0;
#X connect 9 0 16 0;
#X connect 9 1 17 0;
#X connect 9 2 18 0;
#X connect 13 0 10 0;
#X connect 14 0 11 0;
#X connect 15 0 12 0;
#X connect 16 0 13 0;
#X connect 17 0 14 0;
#X connect 18 0 15 0;
#X restore 107 212 pd posicionamento_frase1;
#X obj 107 181 bng 15 250 50 0 empty empty empty 17 7 0 10 -262144
-1 -1;
#N canvas 655 170 518 510 texto 0;
#X obj 194 178 textfile;
#X msg -25 110 read leminski.txt;
#X msg 220 91 rewind;
#X msg 335 98 bang;
#X obj 188 369 outlet;
#X obj 194 228 list2symbol;
#X msg 189 317 text \$1;
#X obj 344 203 bng 15 250 50 0 empty empty empty 17 7 0 10 -262144
-1 -1;
#X obj -31 58 loadbang;
#X obj 330 29 inlet;
#X connect 0 0 5 0;
#X connect 0 1 7 0;
#X connect 1 0 0 0;
#X connect 2 0 0 0;
#X connect 3 0 0 0;
#X connect 5 0 6 0;
#X connect 6 0 4 0;
#X connect 7 0 2 0;
#X connect 8 0 1 0;
#X connect 9 0 3 0;
#X restore 136 520 pd texto;
#N canvas 600 215 487 520 fonte 0;
#X obj 108 434 outlet;
#X obj 102 19 inlet;
#X obj 129 88 random 4;
#X obj 122 138 select 0 1 2 3;
#X msg 107 393 font \$1;
#X msg 14 211 asman.ttf;
#X msg 130 210 comicate.ttf;
#X msg 170 242 contrast.ttf;
#X msg 298 201 stocky.ttf;
#X obj 109 346 l2s;
#X connect 1 0 2 0;
#X connect 2 0 3 0;
#X connect 3 0 5 0;
#X connect 3 1 6 0;
#X connect 3 2 7 0;
#X connect 3 3 8 0;
#X connect 4 0 0 0;
#X connect 5 0 9 0;
#X connect 6 0 9 0;
#X connect 7 0 9 0;
#X connect 8 0 9 0;
#X connect 9 0 4 0;
#X restore 253 520 pd fonte;
#X obj 18 381 rotateXYZ;
#N canvas 671 59 505 656 rotacoes 0;
#X obj 93 58 inlet;
#X text 158 55 chega bang;
#X obj 94 102 random 4;
#X obj 93 148 select 0 1 2 3;
#X obj 87 367 unpack f f f;
#X obj 77 514 outlet;
#X obj 164 515 outlet;
#X obj 253 515 outlet;
#X obj 71 475 line;
#X obj 161 474 line;
#X obj 255 475 line;
#X text 64 23 listas de rotacionamento XYZ;
#X msg 378 280 0 360 90;
#X msg 152 274 0 0 0;
#X msg 62 280 0 0 45;
#X msg 64 432 \$1 200;
#X msg 159 434 \$1 200;
#X msg 253 434 \$1 200;
#X msg 258 274 315 0 0;
#X connect 0 0 2 0;
#X connect 2 0 3 0;
#X connect 3 0 14 0;
#X connect 3 1 13 0;
#X connect 3 2 18 0;
#X connect 3 3 12 0;
#X connect 4 0 15 0;
#X connect 4 1 16 0;
#X connect 4 2 17 0;
#X connect 8 0 5 0;
#X connect 9 0 6 0;
#X connect 10 0 7 0;
#X connect 12 0 4 0;
#X connect 13 0 4 0;
#X connect 14 0 4 0;
#X connect 15 0 8 0;
#X connect 16 0 9 0;
#X connect 17 0 10 0;
#X connect 18 0 4 0;
#X restore 100 334 pd rotacoes;
#X obj 100 306 bng 15 250 50 0 empty empty empty 17 7 0 10 -262144
-1 -1;
#X obj 18 181 alpha;
#X obj 20 87 color 0 1 0 0.5;
#X floatatom 282 49 5 0 1 0 - - -;
#X obj 285 29 hsl 64 15 0 1 0 0 empty empty empty -2 -8 0 10 -262144
-1 -1 6200 1;
#X msg 70 139 1;
#X obj 254 495 bng 15 250 50 0 empty empty empty 17 7 0 10 -262144
-1 -1;
#X obj 136 492 bng 15 250 50 0 empty empty empty 17 7 0 10 -262144
-1 -1;
#X msg 239 81 0 0 0 \$1;
#X msg 138 140 0;
#X text 68 112 fundo preto;
#X text 180 140 fundo branco;
#X obj 18 452 scaleXYZ;
#X obj 214 388 hsl 128 15 0 1 0 0 empty empty empty -2 -8 0 10 -262144
-1 -1 6800 1;
#X obj 512 47 bng 15 250 50 0 empty empty empty 17 7 0 10 -262144 -1
-1;
#X obj 464 4 r bonk;
#X connect 0 0 11 0;
#X connect 1 0 7 0;
#X connect 3 0 1 1;
#X connect 3 1 1 2;
#X connect 3 2 1 3;
#X connect 4 0 3 0;
#X connect 5 0 2 0;
#X connect 6 0 2 0;
#X connect 7 0 21 0;
#X connect 8 0 7 1;
#X connect 8 1 7 2;
#X connect 8 2 7 3;
#X connect 9 0 8 0;
#X connect 10 0 1 0;
#X connect 11 0 10 0;
#X connect 12 0 17 0;
#X connect 13 0 12 0;
#X connect 14 0 10 1;
#X connect 15 0 6 0;
#X connect 16 0 5 0;
#X connect 17 0 11 1;
#X connect 18 0 10 1;
#X connect 21 0 2 0;
#X connect 22 0 21 1;
#X connect 22 0 21 2;
#X connect 22 0 21 3;
#X connect 23 0 4 0;
#X connect 23 0 9 0;
#X connect 23 0 16 0;
#X connect 23 0 15 0;
#X connect 24 0 23 0;
#X restore 213 266 pd mostra_poesia;
#X text 214 80 controles: toca + carrega outro som;
#X text 213 229 controles: carrega outra poesia(txt);
#X obj 305 556 gemwin;
#X msg 302 477 create \, 1;
#X msg 342 514 0 \, destroy;
#X obj 120 451 tgl 15 0 empty empty empty 17 7 0 10 -262144 -1 -1 1
1;
#X msg 120 470 color \$1 \$1 \$1;
#X obj 213 135 bng 15 250 50 0 empty empty empty 17 7 0 10 -262144
-1 -1;
#X obj 465 117 hsl 128 15 0 1 0 0 empty empty empty -2 -8 0 10 -262144
-1 -1 200 1;
#X connect 5 0 4 0;
#X connect 6 0 4 0;
#X connect 7 0 8 0;
#X connect 8 0 4 0;
#X connect 9 0 0 0;
#X connect 10 0 0 2;
