#N canvas 231 93 650 508 24;
#X text 160 3 conceitos: 1) sequenciamento/automação;
#N canvas 0 22 450 278 (subpatch) 0;
#X array sequencia1 8 float 3;
#A 0 52.5669 41.6813 108.809 13.5601 66.174 11.7459 10.8387 10.8387
;
#X coords 0 127 8 0 200 140 1 0 0;
#X restore 264 133 graph;
#X obj 42 259 tabread sequencia1;
#X obj 41 117 bng 15 250 50 0 empty empty empty 17 7 0 10 -262144 -1
-1;
#X floatatom 42 224 5 0 0 0 - - -;
#X obj 41 86 metro 1000;
#X obj 41 58 tgl 15 0 empty empty empty 17 7 0 10 -262144 -1 -1 0 1
;
#X obj 43 356 mtof;
#X obj 44 388 phasor~;
#X obj 41 152 f;
#X obj 96 150 + 1;
#X obj 42 193 % 8;
#X obj 44 424 *~;
#X obj 278 426 line~;
#X msg 271 285 0.6 200;
#X obj 324 349 delay 300;
#X msg 325 383 0 200;
#X obj 321 325 bng 15 250 50 0 empty empty empty 17 7 0 10 -262144
-1 -1;
#X obj 46 461 dac~;
#X obj 42 291 int;
#X floatatom 42 326 5 0 0 0 - - -;
#X text 274 55 3) interatividade;
#X connect 2 0 19 0;
#X connect 3 0 9 0;
#X connect 3 0 14 0;
#X connect 4 0 2 0;
#X connect 5 0 3 0;
#X connect 6 0 5 0;
#X connect 7 0 8 0;
#X connect 8 0 12 0;
#X connect 9 0 10 0;
#X connect 9 0 11 0;
#X connect 10 0 9 1;
#X connect 11 0 4 0;
#X connect 12 0 18 0;
#X connect 12 0 18 1;
#X connect 13 0 12 1;
#X connect 14 0 13 0;
#X connect 14 0 17 0;
#X connect 15 0 16 0;
#X connect 16 0 13 0;
#X connect 17 0 15 0;
#X connect 19 0 20 0;
#X connect 20 0 7 0;
